<?xml version="1.0" standalone="no"?>
<!DOCTYPE svg PUBLIC "-//W3C//DTD SVG 20010904//EN"
 "http://www.w3.org/TR/2001/REC-SVG-20010904/DTD/svg10.dtd">
<svg version="1.0" xmlns="http://www.w3.org/2000/svg"
 width="1500.000000pt" height="1500.000000pt" viewBox="0 0 1500.000000 1500.000000"
 preserveAspectRatio="xMidYMid meet">
<metadata>
Created by potrace 1.15, written by Peter Selinger 2001-2017
</metadata>
<g transform="translate(0.000000,1500.000000) scale(0.100000,-0.100000)"
fill="#000000" stroke="none">
<path d="M7100 13814 c-1443 -98 -2765 -655 -3835 -1616 -680 -611 -1235
-1388 -1587 -2224 -42 -98 -79 -189 -83 -201 l-6 -23 228 0 229 0 58 133 c230
518 557 1035 925 1462 127 148 397 421 555 562 828 739 1852 1229 2951 1412
334 55 584 75 965 75 314 0 456 -8 720 -40 1145 -139 2246 -626 3125 -1383
138 -119 426 -402 555 -546 555 -619 995 -1395 1231 -2167 l33 -108 222 0 222
0 -20 73 c-34 126 -153 477 -206 607 -445 1111 -1165 2046 -2122 2757 -837
622 -1859 1039 -2880 1177 -314 43 -404 48 -815 51 -225 1 -435 1 -465 -1z"/>
<path d="M13151 8450 c-303 -63 -461 -244 -449 -512 5 -111 32 -180 100 -254
97 -106 196 -149 548 -239 309 -79 404 -125 449 -218 41 -85 23 -190 -45 -266
-82 -91 -195 -131 -371 -131 -175 0 -309 47 -403 140 -53 53 -83 110 -106 203
l-17 67 -113 0 -114 0 0 -43 c0 -24 9 -79 20 -121 59 -232 238 -394 490 -446
133 -27 353 -27 467 0 211 50 372 185 429 357 28 87 26 258 -5 333 -52 127
-171 229 -333 288 -47 17 -170 51 -274 77 -402 97 -487 149 -487 295 0 120 94
218 241 249 68 14 245 14 314 0 146 -31 251 -136 273 -274 l7 -40 119 3 c137
4 130 -5 104 115 -41 196 -190 342 -410 403 -70 19 -363 29 -434 14z"/>
<path d="M13095 5628 c-262 -767 -667 -1463 -1195 -2053 -223 -249 -534 -539
-805 -750 -137 -107 -482 -339 -636 -427 -707 -406 -1456 -657 -2239 -752
-264 -32 -406 -40 -720 -40 -381 0 -631 20 -965 75 -1102 183 -2130 676 -2960
1419 -250 224 -541 536 -750 805 -141 181 -444 639 -431 652 2 2 458 -106
1013 -241 555 -135 1016 -246 1024 -246 12 0 27 46 62 193 47 191 52 217 42
217 -10 0 -2624 638 -2732 667 -57 15 -105 24 -109 21 -7 -7 -742 -2733 -751
-2786 -3 -17 -3 -32 0 -32 3 0 90 -22 192 -50 203 -55 211 -56 217 -37 3 6
137 504 299 1104 161 601 296 1090 300 1085 4 -4 40 -63 79 -132 614 -1061
1570 -1953 2675 -2495 696 -341 1367 -532 2185 -622 238 -26 981 -26 1220 0
814 89 1489 281 2185 622 1499 735 2658 2056 3195 3641 l59 174 -225 0 c-171
0 -226 -3 -229 -12z"/>
</g>
</svg>
