<?xml version="1.0" standalone="no"?>
<!DOCTYPE svg PUBLIC "-//W3C//DTD SVG 20010904//EN"
 "http://www.w3.org/TR/2001/REC-SVG-20010904/DTD/svg10.dtd">
<svg version="1.0" xmlns="http://www.w3.org/2000/svg"
 width="1500.000000pt" height="1500.000000pt" viewBox="0 0 1500.000000 1500.000000"
 preserveAspectRatio="xMidYMid meet">
<metadata>
Created by potrace 1.15, written by Peter Selinger 2001-2017
</metadata>
<g transform="translate(0.000000,1500.000000) scale(0.100000,-0.100000)"
fill="#000000" stroke="none">
<path d="M1757 12913 c-4 -3 -7 -20 -7 -38 0 -17 -4 -35 -9 -40 -5 -6 -12 -26
-14 -45 -3 -19 -6 -35 -7 -35 -2 0 -6 -16 -19 -70 -5 -22 -15 -60 -21 -85 -6
-25 -13 -52 -15 -60 -2 -8 -8 -30 -14 -48 -5 -18 -10 -36 -11 -40 0 -4 -5 -23
-10 -42 -5 -19 -11 -46 -14 -60 -2 -14 -7 -32 -10 -40 -3 -8 -8 -26 -10 -40
-3 -14 -47 -188 -98 -387 -51 -199 -90 -364 -88 -367 3 -2 104 22 225 55 121
32 225 59 231 59 6 0 21 -39 33 -87 12 -49 35 -135 51 -193 16 -58 47 -175 70
-260 23 -85 56 -211 75 -280 19 -69 52 -195 75 -280 23 -85 54 -202 70 -260
16 -58 49 -184 75 -280 25 -96 59 -222 75 -280 16 -58 49 -181 74 -275 25 -93
76 -287 115 -430 38 -143 131 -489 206 -770 75 -280 167 -625 205 -765 38
-140 105 -392 150 -560 45 -168 113 -422 151 -565 39 -143 90 -336 115 -430
25 -93 59 -219 76 -279 l30 -109 -263 -260 c-145 -143 -456 -449 -690 -681
-772 -764 -1706 -1686 -2010 -1986 -165 -162 -299 -300 -299 -305 0 -6 72 -82
160 -170 l159 -159 273 271 c150 150 370 367 488 483 118 117 501 495 850 840
349 345 721 712 825 815 105 103 310 306 456 451 l266 264 3778 0 3778 0 200
-202 c110 -112 389 -395 621 -629 839 -848 1697 -1717 1986 -2010 162 -165
300 -299 305 -299 6 0 82 72 170 160 l159 159 -271 273 c-150 150 -367 370
-483 488 -117 118 -495 501 -840 850 -345 349 -712 721 -815 825 -103 105
-328 332 -501 506 l-314 317 49 183 c27 101 118 438 201 749 204 764 288 1076
355 1325 31 116 74 275 95 355 21 80 55 206 75 280 37 138 90 335 151 563 19
70 49 184 68 255 43 158 103 385 157 585 23 83 54 199 69 257 15 58 47 175 70
260 23 85 56 211 75 280 18 69 54 204 80 300 92 343 115 427 151 568 21 78 42
142 48 142 6 0 110 -27 231 -59 121 -33 222 -57 224 -55 3 2 -53 230 -122 507
-70 276 -130 513 -133 527 -3 14 -14 59 -25 100 -11 41 -22 82 -24 90 -2 8 -4
15 -5 15 -1 0 -4 14 -6 30 -3 17 -7 37 -11 45 -9 22 -10 27 -12 55 -2 44 -26
39 -82 -19 -30 -30 -157 -161 -284 -291 -126 -131 -299 -307 -383 -393 -252
-258 -284 -294 -276 -302 5 -4 108 -33 229 -65 121 -32 221 -59 223 -60 1 -1
-22 -94 -52 -206 -62 -232 -380 -1417 -522 -1949 -53 -195 -120 -447 -150
-560 -88 -328 -202 -753 -244 -910 -36 -135 -54 -202 -146 -545 -20 -71 -53
-195 -74 -275 -21 -80 -55 -206 -75 -280 -41 -150 -100 -371 -150 -560 -35
-132 -91 -341 -156 -580 -21 -80 -51 -191 -65 -247 l-26 -103 -3522 0 -3522 0
-69 258 c-76 286 -123 463 -266 995 -22 83 -56 208 -74 277 -19 69 -52 195
-75 280 -23 85 -57 211 -75 280 -19 69 -52 195 -75 280 -23 85 -55 202 -70
260 -15 58 -46 174 -69 258 -54 199 -114 426 -157 585 -19 70 -49 184 -68 255
-19 70 -52 195 -74 277 -22 83 -74 276 -116 430 -41 154 -99 372 -130 485 -30
113 -98 367 -151 565 -53 198 -119 443 -146 544 -27 101 -48 185 -47 186 2 1
102 28 223 60 121 32 224 61 229 65 8 8 -22 42 -276 302 -84 86 -256 263 -383
393 -376 386 -342 354 -358 338z"/>
</g>
</svg>
