<?xml version="1.0" standalone="no"?>
<!DOCTYPE svg PUBLIC "-//W3C//DTD SVG 20010904//EN"
 "http://www.w3.org/TR/2001/REC-SVG-20010904/DTD/svg10.dtd">
<svg version="1.0" xmlns="http://www.w3.org/2000/svg"
 width="1500.000000pt" height="1500.000000pt" viewBox="0 0 1500.000000 1500.000000"
 preserveAspectRatio="xMidYMid meet">
<metadata>
Created by potrace 1.15, written by Peter Selinger 2001-2017
</metadata>
<g transform="translate(0.000000,1500.000000) scale(0.100000,-0.100000)"
fill="#000000" stroke="none">
<path d="M7487 13029 c-25 -40 -677 -1208 -683 -1224 -5 -13 26 -15 235 -15
l241 0 0 -3125 0 -3125 -1877 0 -1878 0 -270 -266 c-148 -147 -462 -456 -696
-688 -775 -767 -1706 -1687 -2010 -1986 -165 -162 -299 -300 -299 -305 0 -6
72 -82 160 -170 l159 -159 273 271 c150 150 370 367 488 483 118 117 501 495
850 840 349 345 721 712 825 815 105 103 310 306 456 451 l266 264 3778 0
3778 0 200 -202 c110 -112 389 -395 621 -629 839 -848 1697 -1717 1986 -2010
162 -165 300 -299 305 -299 6 0 82 72 170 160 l159 159 -271 273 c-150 150
-367 370 -483 488 -117 118 -495 501 -840 850 -345 349 -712 721 -815 825
-103 105 -331 335 -507 513 l-320 322 -1879 0 -1879 0 0 3125 0 3125 240 0
c132 0 240 3 240 6 0 10 -681 1227 -695 1243 -11 11 -15 9 -28 -10z"/>
</g>
</svg>
