<?xml version="1.0" standalone="no"?>
<!DOCTYPE svg PUBLIC "-//W3C//DTD SVG 20010904//EN"
 "http://www.w3.org/TR/2001/REC-SVG-20010904/DTD/svg10.dtd">
<svg version="1.0" xmlns="http://www.w3.org/2000/svg"
 width="1500.000000pt" height="1500.000000pt" viewBox="0 0 1500.000000 1500.000000"
 preserveAspectRatio="xMidYMid meet">
<metadata>
Created by potrace 1.15, written by Peter Selinger 2001-2017
</metadata>
<g transform="translate(0.000000,1500.000000) scale(0.100000,-0.100000)"
fill="#000000" stroke="none">
<path d="M7470 14385 c-5 -14 -14 -25 -20 -25 -5 0 -10 -7 -10 -15 0 -9 -6
-18 -14 -21 -8 -3 -17 -16 -20 -30 -4 -13 -11 -24 -16 -24 -6 0 -10 -4 -10 -9
0 -5 -25 -45 -55 -90 -30 -45 -55 -85 -55 -90 0 -5 -7 -11 -15 -15 -8 -3 -15
-12 -15 -21 0 -8 -4 -15 -9 -15 -5 0 -14 -13 -20 -30 -5 -16 -15 -30 -20 -30
-6 0 -11 -5 -11 -10 0 -12 -41 -73 -52 -78 -5 -2 -8 -10 -8 -18 0 -8 -7 -17
-15 -20 -8 -4 -15 -11 -15 -17 0 -6 -18 -37 -40 -68 -22 -32 -40 -60 -40 -64
0 -3 -5 -11 -10 -18 -41 -48 -50 -62 -50 -74 0 -7 -7 -16 -15 -19 -8 -4 -15
-12 -15 -19 0 -6 -9 -23 -20 -36 -11 -13 -23 -28 -28 -34 -4 -5 -11 -18 -15
-27 -3 -10 -11 -18 -17 -18 -5 0 -10 -6 -10 -12 0 -7 -34 -60 -75 -118 -41
-58 -84 -121 -95 -140 -36 -62 -45 -75 -57 -83 -7 -4 -13 -15 -13 -22 0 -8 -4
-15 -10 -15 -5 0 -10 -7 -10 -15 0 -8 -9 -24 -20 -35 -11 -11 -20 -22 -20 -25
0 -9 -44 -70 -52 -73 -5 -2 -8 -10 -8 -18 0 -8 -7 -17 -15 -20 -8 -4 -15 -11
-15 -17 0 -6 -18 -37 -40 -68 -22 -32 -40 -60 -40 -64 0 -3 -5 -11 -10 -18
-41 -48 -50 -62 -50 -74 0 -7 -7 -16 -15 -19 -8 -4 -15 -10 -15 -15 0 -12 -42
-73 -52 -77 -5 -2 -8 -10 -8 -18 0 -8 -7 -17 -15 -20 -8 -4 -15 -12 -15 -19 0
-8 -6 -20 -13 -27 -7 -7 -32 -44 -57 -83 -25 -38 -50 -76 -57 -83 -7 -7 -13
-20 -13 -28 0 -8 -7 -17 -15 -20 -8 -4 -15 -10 -15 -15 0 -12 -42 -73 -52 -77
-5 -2 -8 -10 -8 -18 0 -8 -7 -17 -15 -20 -8 -4 -15 -12 -15 -19 0 -8 -6 -20
-12 -27 -7 -7 -40 -54 -73 -103 -32 -50 -62 -92 -65 -95 -9 -9 -60 -89 -60
-95 0 -4 -6 -13 -12 -20 -29 -32 -36 -42 -42 -62 -4 -12 -13 -24 -21 -27 -8
-3 -15 -10 -15 -16 0 -12 -41 -73 -52 -78 -5 -2 -8 -10 -8 -18 0 -8 -7 -17
-15 -20 -8 -4 -15 -12 -15 -19 0 -8 -6 -20 -13 -27 -15 -16 -67 -96 -67 -103
0 -3 -4 -11 -10 -18 -48 -59 -60 -77 -60 -91 0 -15 64 -16 695 -16 l695 0 0
-5325 0 -5325 740 0 740 0 0 5325 0 5325 690 0 c627 0 690 1 690 16 0 14 -12
32 -60 91 -6 7 -10 15 -10 18 0 7 -52 87 -67 103 -7 7 -13 19 -13 27 0 7 -7
15 -15 19 -8 3 -15 12 -15 20 0 8 -3 16 -7 18 -10 4 -48 58 -56 81 -3 9 -11
17 -16 17 -5 0 -13 10 -17 22 -3 12 -12 28 -18 35 -26 29 -36 43 -36 48 0 6
-51 87 -60 95 -3 3 -33 45 -65 95 -33 49 -66 96 -72 103 -7 7 -13 19 -13 27 0
7 -7 15 -15 19 -8 3 -15 12 -15 20 0 8 -3 16 -7 18 -11 4 -53 65 -53 77 0 5
-7 11 -15 15 -8 3 -15 12 -15 20 0 8 -6 21 -12 28 -23 24 -128 185 -128 196 0
5 -7 12 -15 16 -8 3 -15 12 -15 20 0 8 -3 16 -7 18 -11 4 -53 65 -53 77 0 5
-7 11 -15 15 -8 3 -15 12 -15 19 0 12 -9 26 -50 74 -5 7 -10 15 -10 18 0 4
-18 32 -40 64 -22 31 -40 62 -40 68 0 6 -7 13 -15 17 -8 3 -15 12 -15 20 0 8
-3 16 -7 18 -12 5 -53 66 -53 78 0 5 -5 10 -11 10 -5 0 -15 14 -20 30 -6 17
-15 30 -20 30 -5 0 -9 7 -9 15 0 7 -6 18 -12 22 -13 8 -22 21 -58 83 -11 19
-54 82 -95 140 -41 58 -75 111 -75 118 0 6 -5 12 -10 12 -6 0 -14 8 -17 18 -4
9 -11 22 -15 27 -5 6 -17 21 -28 34 -11 13 -20 30 -20 36 0 7 -7 15 -15 19 -8
3 -15 12 -15 20 0 8 -6 21 -12 28 -23 24 -128 185 -128 196 0 5 -7 12 -15 16
-8 3 -15 12 -15 20 0 8 -3 16 -7 18 -12 5 -53 66 -53 78 0 5 -5 10 -11 10 -5
0 -15 14 -20 30 -6 17 -15 30 -20 30 -5 0 -9 7 -9 15 0 9 -7 18 -15 21 -8 4
-15 11 -15 16 0 5 -25 46 -55 90 -30 44 -55 84 -55 89 0 5 -4 9 -10 9 -5 0
-12 11 -16 24 -3 14 -12 27 -20 30 -8 3 -14 12 -14 21 0 8 -5 15 -10 15 -6 0
-15 11 -20 25 -7 18 -17 25 -35 25 -18 0 -28 -7 -35 -25z"/>
</g>
</svg>
